<?xml version="1.0" encoding="UTF-8" standalone="no"?>
<!-- Created with Inkscape (http://www.inkscape.org/) -->

<svg
   xmlns:dc="http://purl.org/dc/elements/1.1/"
   xmlns:cc="http://creativecommons.org/ns#"
   xmlns:rdf="http://www.w3.org/1999/02/22-rdf-syntax-ns#"
   xmlns:svg="http://www.w3.org/2000/svg"
   xmlns="http://www.w3.org/2000/svg"
   xmlns:sodipodi="http://sodipodi.sourceforge.net/DTD/sodipodi-0.dtd"
   xmlns:inkscape="http://www.inkscape.org/namespaces/inkscape"
   width="210mm"
   height="297mm"
   viewBox="0 0 210 297"
   version="1.1"
   id="svg8"
   inkscape:version="0.92.3 (2405546, 2018-03-11)"
   sodipodi:docname="logo.svg"
   inkscape:export-filename="/home/james/Documents/programming/chrome-watcher/images/path128.png"
   inkscape:export-xdpi="45.849998"
   inkscape:export-ydpi="45.849998">
  <defs
     id="defs2" />
  <sodipodi:namedview
     id="base"
     pagecolor="#ffffff"
     bordercolor="#666666"
     borderopacity="1.0"
     inkscape:pageopacity="0.0"
     inkscape:pageshadow="2"
     inkscape:zoom="1"
     inkscape:cx="402.14873"
     inkscape:cy="703.72882"
     inkscape:document-units="mm"
     inkscape:current-layer="layer1"
     showgrid="false"
     inkscape:window-width="935"
     inkscape:window-height="1020"
     inkscape:window-x="50"
     inkscape:window-y="30"
     inkscape:window-maximized="0"
     showguides="false" />
  <metadata
     id="metadata5">
    <rdf:RDF>
      <cc:Work
         rdf:about="">
        <dc:format>image/svg+xml</dc:format>
        <dc:type
           rdf:resource="http://purl.org/dc/dcmitype/StillImage" />
        <dc:title />
      </cc:Work>
    </rdf:RDF>
  </metadata>
  <g
     inkscape:label="Layer 1"
     inkscape:groupmode="layer"
     id="layer1">
    <circle
       style="fill:#2abec7;fill-opacity:1;stroke-width:0.25691423"
       id="path824"
       cx="102.65834"
       cy="104.64793"
       r="35.454166" />
    <ellipse
       style="fill:#1cb3bb;stroke-width:0.27898848;fill-opacity:1"
       id="path44"
       cx="101.67559"
       cy="104.23214"
       inkscape:export-xdpi="5.6649098"
       inkscape:export-ydpi="5.6649098"
       r="35.869942" />
    <path
       sodipodi:type="inkscape:offset"
       inkscape:radius="0.65109962"
       inkscape:original="M 125.14062 84.212891 C 123.49775 84.975656 122.7949 85.386982 121.38672 86.619141 C 122.97092 88.262019 123.55664 89.787715 123.55664 92.193359 C 123.55664 94.775026 122.55914 98.002904 120.74023 101.58203 C 118.45194 105.9826 115.22458 110.38318 108.125 118.65625 L 108.41992 113.49219 L 108.77148 105.21875 L 109.29883 94.892578 L 109.5918 90.316406 L 106.18945 91.666016 C 103.49044 96.242607 93.281428 111.38046 88.880859 117.36523 L 93.222656 92.662109 C 94.454815 92.25139 95.158625 91.841293 96.273438 90.785156 C 84.890634 90.902505 84.186492 90.903331 82.074219 91.607422 C 77.028234 93.250301 73.742188 97.298336 73.742188 101.93359 C 73.742188 103.86984 74.211522 105.51329 75.208984 107.21484 L 79.609375 104.45703 C 78.259867 102.40343 77.673828 100.70196 77.673828 98.707031 C 77.673828 96.301387 78.846631 94.481515 81.017578 93.71875 C 82.42576 93.190682 83.833807 93.074299 88.234375 93.015625 L 83.072266 124.93359 L 86.884766 123.75977 L 104.48828 97.884766 C 104.37093 104.92567 103.72533 119.59424 103.19727 124.93359 L 106.95312 123.70117 C 108.94805 120.65011 109.6511 119.65284 113.40625 115.01758 C 124.49568 101.40515 128.36914 94.716873 128.36914 88.966797 C 128.36914 87.382592 128.1337 86.443177 127.48828 85.152344 C 126.66684 84.68295 126.49013 84.62361 125.14062 84.212891 z "
       style="font-style:normal;font-weight:normal;font-size:58.67424393px;line-height:1.25;font-family:sans-serif;letter-spacing:0px;word-spacing:0px;fill:#c5f6ff;fill-opacity:1;stroke:none;stroke-width:1.46685362"
       id="text42"
       d="m 125.13672,83.5625 a 0.65116473,0.65116473 0 0 0 -0.26953,0.06055 c -1.65963,0.770545 -2.47522,1.250286 -3.91016,2.505859 a 0.65116473,0.65116473 0 0 0 -0.0391,0.941406 c 1.50005,1.555612 1.98828,2.823089 1.98828,5.123047 0,2.413954 -0.95526,5.569866 -2.74609,9.093751 -2.07867,3.99616 -5.28009,8.32086 -11.26954,15.39453 l 0.17969,-3.15234 a 0.65116473,0.65116473 0 0 0 0,-0.01 l 0.35157,-8.26953 0.52734,-10.320312 0.29297,-4.572266 a 0.65116473,0.65116473 0 0 0 -0.89063,-0.646484 l -3.40234,1.349609 a 0.65116473,0.65116473 0 0 0 -0.32031,0.275391 c -2.41343,4.092347 -10.751231,16.444482 -15.595707,23.228512 l 3.771485,-21.455075 c 1.065145,-0.400822 1.891105,-0.880597 2.916015,-1.851563 a 0.65116473,0.65116473 0 0 0 -0.453125,-1.123046 c -5.691279,0.05867 -8.710693,0.08676 -10.605469,0.191406 -1.894775,0.104646 -2.716313,0.305177 -3.792968,0.664062 -5.263842,1.715528 -8.777344,6.001737 -8.777344,10.943356 0,2.04147 0.509787,3.82886 1.554687,5.61133 a 0.65116473,0.65116473 0 0 0 0.908204,0.2207 l 4.40039,-2.75781 a 0.65116473,0.65116473 0 0 0 0.199219,-0.9082 c -1.306373,-1.98796 -1.830078,-3.52516 -1.830078,-5.392579 0,-2.194027 0.975594,-3.693336 2.910156,-4.373047 a 0.65116473,0.65116473 0 0 0 0.01172,-0.0059 c 1.195122,-0.448171 2.647601,-0.568601 6.21875,-0.632813 l -5.035156,31.134768 a 0.65116473,0.65116473 0 0 0 0.833984,0.72656 l 3.8125,-1.17383 a 0.65116473,0.65116473 0 0 0 0.347656,-0.25586 l 16.335942,-24.01172 c -0.18153,7.48308 -0.73059,19.89692 -1.21094,24.75391 a 0.65116473,0.65116473 0 0 0 0.85156,0.68359 l 3.75586,-1.23242 a 0.65116473,0.65116473 0 0 0 0.3418,-0.26367 c 1.99171,-3.04614 2.66286,-3.99893 6.41211,-8.62695 l 0.002,-0.002 c 11.10698,-13.6342 15.10742,-20.418815 15.10742,-26.460933 0,-1.648715 -0.27561,-2.758267 -0.94922,-4.105469 a 0.65116473,0.65116473 0 0 0 -0.25976,-0.273437 c -0.83584,-0.477623 -1.1294,-0.586852 -2.48047,-0.998047 a 0.65116473,0.65116473 0 0 0 -0.19336,-0.02734 z" />
  </g>
</svg>
